<?xml version="1.0" standalone="no"?><!DOCTYPE svg PUBLIC "-//W3C//DTD SVG 1.1//EN" "http://www.w3.org/Graphics/SVG/1.1/DTD/svg11.dtd"><svg t="1610273459568" class="icon" viewBox="0 0 1024 1024" version="1.1" xmlns="http://www.w3.org/2000/svg" p-id="1670" xmlns:xlink="http://www.w3.org/1999/xlink" width="32" height="32"><defs><style type="text/css"></style></defs><path d="M302.69602 934.682765c-21.713534 0-43.268456-6.795776-61.737086-20.159132-32.718169-23.710005-48.827055-63.177901-42.043558-103.009072l24.186865-142.102439c3.90289-22.88215-3.698229-46.195112-20.352537-62.395072l-103.326297-100.490715c-28.973892-28.157293-39.251979-69.530586-26.818809-107.978247s44.992727-65.968457 84.971253-71.834049l142.624325-20.896936c22.961968-3.369747 42.791595-17.821901 53.04717-38.651298l63.643506-129.339764c17.83418-36.246529 53.999868-58.799174 94.41023-58.855456 0.045025 0 0.091074 0 0.091074 0 40.386826 0 76.576049 22.451338 94.477768 58.618049l63.938218 129.192408c10.3006 20.794605 30.176276 35.190477 53.18327 38.503942l142.646837 20.544919c40.001039 5.752004 72.628134 33.194006 85.152379 71.606875 12.546757 38.412868 2.382257 79.820953-26.524097 108.068298l-103.07661 100.740402c-16.60826 16.211217-24.164353 39.558971-20.216437 62.452377l24.550139 142.022621c6.874571 39.819914-9.143241 79.332836-41.816384 103.133915-32.649608 23.801079-75.146491 26.909883-110.949928 8.145517L545.084513 855.077729c-20.488637-10.743692-45.060265-10.743692-65.639976 0.091074l-127.490649 67.239404C336.366887 930.622286 319.508941 934.682765 302.69602 934.682765zM511.437182 113.821325l-0.091074 0c-27.454282 0.033769-51.073212 14.759145-63.189158 39.388079l-63.643506 129.339764c-15.292288 31.118741-44.924165 52.707432-79.253018 57.755402l-142.646837 20.896936c-27.136034 3.981684-48.396243 21.951965-56.858986 48.066739-8.44023 26.127054-1.724271 53.138244 17.946744 72.276117l103.326297 100.490715c24.889877 24.198122 36.280298 59.048861 30.425963 93.241614L233.266741 817.368896c-4.605901 27.057239 5.921873 52.819996 28.157293 68.929906 22.23542 16.132422 50.006927 18.082844 74.284867 5.275143l127.490649-67.239404c30.721699-16.166191 67.38676-16.19996 98.06241-0.124843l127.695311 66.933435c24.27794 12.706393 52.049446 10.697643 74.238818-5.468548 22.190395-16.154935 32.649608-41.963741 27.976168-69.02098l-24.550139-142.023644c-5.89936-34.20401 5.399987-69.088518 30.199813-93.320409l103.07661-100.729146c19.648502-19.195178 26.27441-46.240137 17.765619-72.333422-8.508791-26.103518-29.814026-44.017516-56.972573-47.930639L718.022237 339.771427c-34.351366-4.946662-64.051805-26.455535-79.435167-57.528228l-63.938218-129.192408C562.465368 128.490419 538.845415 113.821325 511.437182 113.821325z" p-id="1671" fill="#d4237a"></path></svg>