<?xml version="1.0" standalone="no"?><!DOCTYPE svg PUBLIC "-//W3C//DTD SVG 1.1//EN" "http://www.w3.org/Graphics/SVG/1.1/DTD/svg11.dtd"><svg t="1610271724283" class="icon" viewBox="0 0 1024 1024" version="1.1" xmlns="http://www.w3.org/2000/svg" p-id="3375" xmlns:xlink="http://www.w3.org/1999/xlink" width="32" height="32"><defs><style type="text/css"></style></defs><path d="M623.104 512c-30.72 0-55.296 25.088-55.296 55.296 0 30.72 25.088 55.296 55.296 55.296s55.296-25.088 55.296-55.296c0-30.72-24.576-55.296-55.296-55.296z m-259.072 0c-30.72 0-55.296 25.088-55.296 55.296 0 30.72 25.088 55.296 55.296 55.296 30.72 0 55.296-25.088 55.296-55.296 0-30.72-24.576-55.296-55.296-55.296z m499.2-36.864h36.864v184.832h-36.864v-184.832z m-261.12-119.296c2.56 4.096 5.12 8.704 8.192 12.8 27.136 34.304 64 49.664 95.744 57.856 31.744 8.192 61.952 10.24 77.312 13.824 4.608 1.024 4.608 1.536 5.632 2.56V734.208H853.504c-11.776 22.528-34.816 36.864-64.512 36.864h-225.28c-7.68-21.504-27.648-36.864-52.224-36.864-30.72 0-55.296 25.088-55.296 55.296 0 30.72 25.088 55.296 55.296 55.296h178.176c-51.2 46.592-119.808 74.24-196.608 74.24-141.312 0-259.584-102.4-288.768-233.472l-4.608-20.992-20.992-7.168c-34.304-10.752-55.296-35.84-55.296-71.68 0-31.232 24.576-62.464 46.08-68.096l27.648-7.168v-28.672c0-16.384 3.072-20.48 8.192-25.6 4.608-4.608 14.336-9.216 31.232-12.8 33.792-6.656 89.6-4.608 146.944-5.632 57.344-1.024 118.784-6.144 171.008-38.4 18.432-10.752 34.816-25.6 47.616-43.52z m-108.544-250.88c161.28 0 295.936 116.224 326.144 269.312-6.656-2.56-13.312-4.096-19.456-5.632-26.112-6.144-51.712-8.192-75.264-13.824s-42.496-14.336-56.832-32.256c-14.336-17.92-26.624-49.152-26.624-106.496h-74.24c0 73.216-20.992 102.4-52.224 121.344-31.232 18.944-80.384 25.6-134.144 26.624s-108.544-3.072-158.208 7.168c-20.992 4.096-42.496 10.752-59.904 24.064 21.504-163.328 161.792-290.304 330.752-290.304z m0-74.24c-223.744 0-407.04 183.296-407.04 407.04v56.832c-22.528 24.064-36.864 55.296-36.864 91.136 0 58.88 37.888 103.936 88.064 128.512 41.984 157.696 184.32 278.528 355.84 278.528 120.832 0 227.84-56.832 294.912-147.968h1.024c71.68 0 130.56-50.688 144.384-117.76 7.168-3.584 13.824-8.192 19.456-13.824 13.824-13.824 20.992-33.792 20.992-53.248v-184.832c0-19.456-6.656-39.424-20.992-53.248-13.824-13.824-33.792-20.992-53.248-20.992h-2.56c-18.432-206.336-193.024-370.176-403.968-370.176z" p-id="3376"></path></svg>