<?xml version="1.0" standalone="no"?><!DOCTYPE svg PUBLIC "-//W3C//DTD SVG 1.1//EN" "http://www.w3.org/Graphics/SVG/1.1/DTD/svg11.dtd"><svg t="1606558068123" class="icon" viewBox="0 0 1024 1024" version="1.1" xmlns="http://www.w3.org/2000/svg" p-id="4419" xmlns:xlink="http://www.w3.org/1999/xlink" width="200" height="200"><defs><style type="text/css"></style></defs><path d="M900.267419 72.252602c28.359146 0 51.479979 23.120833 51.479979 51.479979v388.357735c0 59.427765-11.560416 117.049215-34.500617 171.238666-22.217675 52.383136-53.828188 99.347328-94.289646 139.808785-40.461457 40.461457-87.425648 72.07197-139.808784 94.289645-54.189451 22.940201-111.810901 34.500617-171.238667 34.500618s-117.049215-11.560416-171.238666-34.500618c-52.383136-22.217675-99.347328-53.828188-139.808785-94.289645-40.461457-40.461457-72.07197-87.425648-94.289645-139.808785-22.940201-54.189451-34.500617-111.810901-34.500618-171.238666s11.560416-117.049215 34.500618-171.238667c22.217675-52.383136 53.828188-99.347328 94.289645-139.808784 40.461457-40.461457 87.425648-72.07197 139.808785-94.289646 54.189451-22.940201 111.810901-34.500617 171.238666-34.500617h388.357735m0-72.252602h-388.357735C229.221379 0 0 229.221379 0 512.090316 0 794.778621 229.221379 1024 512.090316 1024S1024.180632 794.778621 1024.180632 511.909684v-388.357735C1024 55.453872 968.72676 0 900.267419 0z" p-id="4420" fill="#1296db"></path><path d="M248.910213 602.5867c-19.688834 0-35.765038-15.895572-35.765037-35.765038v-109.462692c0-19.688834 15.895572-35.765038 35.765037-35.765038 19.688834 0 35.765038 15.895572 35.765038 35.765038v109.462692c-0.180632 19.688834-16.076204 35.765038-35.765038 35.765038zM423.580878 602.5867c-19.688834 0-35.765038-15.895572-35.765037-35.765038v-109.462692c0-19.688834 15.895572-35.765038 35.765037-35.765038 19.688834 0 35.765038 15.895572 35.765038 35.765038v109.462692c-0.180632 19.688834-16.076204 35.765038-35.765038 35.765038z" p-id="4421" fill="#1296db"></path></svg>