<?xml version="1.0" standalone="no"?><!DOCTYPE svg PUBLIC "-//W3C//DTD SVG 1.1//EN" "http://www.w3.org/Graphics/SVG/1.1/DTD/svg11.dtd"><svg t="1609468079878" class="icon" viewBox="0 0 1024 1024" version="1.1" xmlns="http://www.w3.org/2000/svg" p-id="2514" width="32" height="32" xmlns:xlink="http://www.w3.org/1999/xlink"><defs><style type="text/css"></style></defs><path d="M512 0C230.4 0 0 230.4 0 512s230.4 512 512 512c281.6 0 512-230.4 512-512S793.6 0 512 0zM838.4 371.2l-384 384C448 761.6 428.8 768 416 768c-12.8 0-25.6-6.4-38.4-12.8L147.2 524.8C128 505.6 128 467.2 147.2 448c19.2-19.2 57.6-19.2 76.8 0l192 192 345.6-345.6c19.2-19.2 57.6-19.2 76.8 0C864 313.6 864 345.6 838.4 371.2z" p-id="2515" fill="#1afa29"></path></svg>